<?xml version="1.0" encoding="utf-8"?>
<!-- Generator: Adobe Illustrator 16.0.1, SVG Export Plug-In . SVG Version: 6.00 Build 0)  -->
<!DOCTYPE svg PUBLIC "-//W3C//DTD SVG 1.1//EN" "http://www.w3.org/Graphics/SVG/1.1/DTD/svg11.dtd">
<svg version="1.1" id="Layer_1" xmlns="http://www.w3.org/2000/svg" xmlns:xlink="http://www.w3.org/1999/xlink" x="0px" y="0px"
	 width="67.69px" height="339.497px" viewBox="-102.897 -252.551 67.69 339.497"
	 enable-background="new -102.897 -252.551 67.69 339.497" xml:space="preserve">
<g>
	<path d="M-37.507-176.831h-14.5l-4.2-12.6h-25.3l-4.3,12.6h-14.5l25.9-71.2h10.9L-37.507-176.831z M-59.907-201.13l-8.7-25.9
		l-9,25.9H-59.907z"/>
	<path d="M-42.707-136.231c0,7.4-2.5,13.418-7.5,18.051c-5,4.634-11.234,6.949-18.7,6.949c-7.467,0-13.7-2.315-18.7-6.949
		c-5-4.633-7.5-10.65-7.5-18.051v-46.8h13.9v46.3c0,4.067,1.1,7.268,3.3,9.601c2.2,2.334,5.2,3.5,9,3.5c3.8,0,6.816-1.166,9.05-3.5
		c2.232-2.333,3.35-5.533,3.35-9.601v-46.3h13.8V-136.231z"/>
	<path d="M-43.357-105.63h-18.6v58.8h-13.9v-58.8h-18.6v-12.4h51.1V-105.63z"/>
	<path d="M-42.607-17.43c0,7.734-0.3,13.1-0.9,16.1c-0.867,4.935-2.935,9.034-6.2,12.3c-5.2,5.2-11.6,7.8-19.2,7.8
		c-7.667,0-14.1-2.6-19.3-7.8c-3.2-3.2-5.267-7.3-6.2-12.3c-0.535-2.933-0.8-8.3-0.8-16.1c0-7.801,0.266-13.166,0.8-16.101
		c0.933-5,3-9.1,6.2-12.3c5.2-5.2,11.633-7.8,19.3-7.8c7.6,0,14,2.6,19.2,7.8c3.266,3.268,5.333,7.367,6.2,12.3
		C-42.907-30.531-42.607-25.164-42.607-17.43z M-56.507-17.43c0-5.466-0.067-8.934-0.2-10.4c-0.4-4.4-1.5-7.6-3.3-9.6
		c-2.267-2.533-5.234-3.801-8.9-3.801c-3.734,0-6.734,1.268-9,3.801c-1.734,2-2.8,5.199-3.2,9.6c-0.134,1.2-0.2,4.667-0.2,10.4
		c0,5.734,0.066,9.199,0.2,10.399c0.4,4.4,1.466,7.601,3.2,9.601c2.266,2.534,5.266,3.8,9,3.8c4.133,0,7.365-1.601,9.7-4.8
		C-57.407-0.896-56.507-7.231-56.507-17.43z"/>
	<path d="M-41.657,83.169h-12.4l-28.2-43.7v43.7h-13.9v-71.2h12.4l28.2,43.601V11.969h13.9V83.169z"/>
</g>
</svg>
