<?xml version="1.0" encoding="utf-8"?>
<!-- Generator: Adobe Illustrator 16.0.1, SVG Export Plug-In . SVG Version: 6.00 Build 0)  -->
<!DOCTYPE svg PUBLIC "-//W3C//DTD SVG 1.1//EN" "http://www.w3.org/Graphics/SVG/1.1/DTD/svg11.dtd">
<svg version="1.1" id="Layer_1" xmlns="http://www.w3.org/2000/svg" xmlns:xlink="http://www.w3.org/1999/xlink" x="0px" y="0px"
	 width="218.655px" height="393.742px" viewBox="0.5 -65.427 218.655 393.742" enable-background="new 0.5 -65.427 218.655 393.742"
	 xml:space="preserve">
<g>
	<path d="M80.979-10.456c-9.538,0-17.143,2.845-22.823,8.524c-5.688,5.688-8.523,15.493-8.523,29.423v207.882
		c0,13.938,2.835,23.648,8.523,29.147c5.681,5.5,13.285,8.25,22.823,8.25c9.53,0,17.135-2.75,22.823-8.25
		c0.708-0.686,1.372-1.437,1.992-2.253c-4.357-5.733-6.529-14.693-6.529-26.894V27.491c0-12.193,2.172-21.225,6.529-27.103
		c-0.62-0.837-1.284-1.611-1.992-2.32C98.114-7.611,90.51-10.456,80.979-10.456z"/>
	<path d="M146.699-40.429c15.21,16.688,22.823,40.611,22.823,71.77v37.396h49.633V31.341c0-31.158-7.613-55.082-22.823-71.77
		c-15.218-16.679-37.672-25.022-67.369-25.022c-8.931,0-17.195,0.77-24.817,2.279C121.866-59.664,136.058-52.091,146.699-40.429z"/>
	<path d="M146.699,303.293c-10.641,11.669-24.833,19.238-42.554,22.745c7.622,1.509,15.886,2.277,24.817,2.277
		c29.697,0,52.151-8.335,67.369-25.022c15.21-16.68,22.823-40.603,22.823-71.77v-51.146h-49.633v51.146
		C169.522,262.69,161.909,286.613,146.699,303.293z"/>
</g>
</svg>
