<?xml version="1.0" encoding="utf-8"?>
<!-- Generator: Adobe Illustrator 16.0.1, SVG Export Plug-In . SVG Version: 6.00 Build 0)  -->
<!DOCTYPE svg PUBLIC "-//W3C//DTD SVG 1.1//EN" "http://www.w3.org/Graphics/SVG/1.1/DTD/svg11.dtd">
<svg version="1.1" id="Layer_1" xmlns="http://www.w3.org/2000/svg" xmlns:xlink="http://www.w3.org/1999/xlink" x="0px" y="0px"
	 width="219.155px" height="296.08px" viewBox="0 -65.427 219.155 296.08" enable-background="new 0 -65.427 219.155 296.08"
	 xml:space="preserve">
<g>
	<path fill="#FFFFFF" d="M216.66,18.574c-3.606-21.345-13.034-39.642-28.277-54.892c-19.408-19.401-46.021-29.109-79.842-29.109
		H37.01c33.82,0,60.434,9.708,79.842,29.109c15.243,15.25,24.671,33.547,28.277,54.892c1.663,9.428,2.495,30.771,2.495,64.039
		s-0.832,54.618-2.495,64.04c-3.606,21.351-13.034,39.647-28.277,54.891c-19.408,19.408-46.021,29.109-79.842,29.109h71.531
		c33.82,0,60.434-9.701,79.842-29.109c15.243-15.243,24.671-33.54,28.277-54.891c1.663-9.422,2.495-30.772,2.495-64.04
		S218.323,28.002,216.66,18.574z"/>
	<path fill="#FFFFFF" d="M66.951,16.079C59.466,4.994,47.822-0.555,32.02-0.555H0v166.337h32.02
		c15.803,0,27.446-5.543,34.932-16.634c1.905-2.771,3.432-6.085,4.58-9.943V29.646C70.33,23.34,68.804,18.812,66.951,16.079z"/>
</g>
</svg>
