<?xml version="1.0" encoding="utf-8"?>
<!-- Generator: Adobe Illustrator 16.0.1, SVG Export Plug-In . SVG Version: 6.00 Build 0)  -->
<!DOCTYPE svg PUBLIC "-//W3C//DTD SVG 1.1//EN" "http://www.w3.org/Graphics/SVG/1.1/DTD/svg11.dtd">
<svg version="1.1" id="Layer_1" xmlns="http://www.w3.org/2000/svg" xmlns:xlink="http://www.w3.org/1999/xlink" x="0px" y="0px"
	 width="423.999px" height="98.667px" viewBox="-138.988 89.833 423.999 98.667"
	 enable-background="new -138.988 89.833 423.999 98.667" xml:space="preserve">
<g>
	<path fill="#FFFFFF" d="M58.893,162.927c0,4.022-1.553,6.213-5.566,6.213h-9.07v-24.78h8.295c4.145,0,6.342,2.336,6.342,6.869
		V162.927L58.893,162.927z M44.256,108.865h8.684c4.014,0,5.701,2.336,5.701,6.218v10.753c0,4.539-2.203,6.738-6.347,6.738h-8.038
		V108.865L44.256,108.865z M63.825,137.755c7.38-1.556,10.229-7.125,10.229-14.508v-9.33c0-11.916-7.253-18.262-19.04-18.262H28.07
		v86.703H55.27c11.795,0,19.17-6.218,19.17-18.266v-11.694C74.439,145.14,71.591,139.827,63.825,137.755L63.825,137.755z
		 M-3.345,93.707c-15.417,0-24.871,10.368-24.871,23.709v42.75c0,13.344,9.453,24.137,24.871,24.137
		c15.288,0,23.322-10.014,23.322-22.969v-10.494H5.598v10.365c0,5.053-2.852,8.976-8.682,8.976s-8.809-3.923-8.809-8.718v-45.342
		c0-4.791,2.979-8.289,8.809-8.289s8.682,3.498,8.682,8.553v10.358h14.379v-10.487C19.977,103.294,11.942,93.707-3.345,93.707
		L-3.345,93.707z M-50.474,129.979c0,4.28-1.681,6.479-5.697,6.479h-8.812v-27.594h8.812c4.017,0,5.697,2.203,5.697,6.479V129.979
		L-50.474,129.979z M-54.486,95.656h-26.557v86.703h16.061V148.9h10.496c12.177,0,19.558-6.998,19.558-19.307v-14.511
		C-34.928,102.65-42.31,95.656-54.486,95.656L-54.486,95.656z M-89.373,95.65h-16.195l-17.36,39.514V95.65h-16.06v86.709h16.06
		v-24.523l5.575-11.396l11.918,35.92h16.838l-17.743-50.302L-89.373,95.65L-89.373,95.65z"/>
	<polygon fill="#FFFFFF" points="109.438,185.615 107.447,185.615 107.447,93.707 109.438,93.707 109.438,185.615 	"/>
	<path fill="#FFFFFF" d="M150.529,127.757c1.666-5.221,1.722-5.887-1.277-6.555l-1.001-0.222c-0.332-0.444-0.277-1.166,0.334-1.39
		c0.944,0.057,1.833,0.057,2.833,0.113c0.944,0,2,0.055,3.166,0.055h10.331c3.555,0,6.222,0,7.833-0.168
		c-0.389,0.945-1.722,5.389-2.278,7.389c-0.222,0.445-1.222,0.389-1.388-0.055c0.333-2.889,0.499-4.277-1.945-4.944
		c-1.276-0.333-2.999-0.5-5.888-0.5h-3.055c-1.555,0-1.555,0.167-2.11,1.89l-3.833,12.163c-0.389,1.167-0.277,1.39,0.89,1.39h3.833
		c5.275,0,6.332-0.39,7.608-2.723l0.945-1.722c0.276-0.333,1.333-0.278,1.444,0.11c-0.39,1-1.223,3.223-1.89,5.277
		c-0.667,2.057-1.222,4.166-1.444,5.555c-0.332,0.39-1.056,0.334-1.443,0l0.055-2.11c0.057-1.833-1.166-2.444-5.721-2.444h-4.11
		c-1.222,0-1.333,0.167-1.778,1.555l-2.443,8c-1.555,5.166-1.778,6.388,1.056,6.609l2.166,0.167
		c0.333,0.388,0.167,1.166-0.222,1.388c-3.223-0.11-5.167-0.166-7.555-0.166c-2.223,0-4.11,0.056-6.276,0.166
		c-0.445-0.277-0.445-1.055-0.056-1.388l1.722-0.167c2.666-0.277,3.222-0.943,4.999-6.609L150.529,127.757L150.529,127.757z"/>
	<path fill="#FFFFFF" d="M176.304,138.145c-2.167,2.333-3.443,4.888-4.11,6.499c3.666-1.111,5.388-2.166,7.442-4.111
		c1.723-1.609,2.167-3.277,2.167-3.777c0-0.555-0.277-1.276-1.277-1.276C179.747,135.479,178.303,135.979,176.304,138.145
		L176.304,138.145z M185.135,137.089c0,4.222-5.499,6.998-13.497,9.221c-0.389,0.943-0.777,2.722-0.777,4.943
		c0,1.889,1.167,3.166,2.666,3.166c2,0,3.389-1.11,5.833-3.222c0.499,0,0.833,0.445,0.722,0.944
		c-3.389,4.166-6.555,5.055-8.888,5.055c-3.332,0-4.499-3.109-4.499-5.832c0-3.499,2.222-10.275,8.275-14.941
		c2.89-2.223,5.056-2.666,6.666-2.666C183.858,133.757,185.135,135.645,185.135,137.089L185.135,137.089z"/>
	<path fill="#FFFFFF" d="M190.302,152.809c-0.444,1.278-0.389,1.833,0.223,1.833c1.222,0,3.833-2.723,6.388-5.61
		c0.555-0.056,0.889,0.222,0.889,0.778c-1.443,2.777-4.943,7.387-9.554,7.387c-1.667,0-2.166-0.777-2.166-1.666
		s0.277-1.889,1.222-4.722l8.831-26.272c1.333-3.889,0.778-4.445-0.055-4.832l-1-0.445c-0.278-0.223-0.278-0.723,0-0.889
		c1-0.389,4.444-1.445,6.999-1.666l0.277,0.332c-0.723,2-1.277,3.555-3.277,9.555L190.302,152.809L190.302,152.809z"/>
	<path fill="#FFFFFF" d="M203.966,152.809c-0.443,1.278-0.389,1.833,0.223,1.833c1.222,0,3.833-2.723,6.388-5.61
		c0.556-0.056,0.889,0.222,0.889,0.778c-1.443,2.777-4.943,7.387-9.554,7.387c-1.667,0-2.166-0.777-2.166-1.666
		s0.277-1.889,1.222-4.722l8.832-26.272c1.333-3.889,0.777-4.445-0.056-4.832l-1-0.445c-0.277-0.223-0.277-0.723,0-0.889
		c1-0.389,4.444-1.445,6.999-1.666l0.277,0.332c-0.722,2-1.277,3.555-3.277,9.555L203.966,152.809L203.966,152.809z"/>
	<path fill="#FFFFFF" d="M222.686,138.089c-3.223,4.332-5.389,10.942-5.556,13.887c-0.109,1.943,0.667,3.555,2.278,3.555
		c1.222,0,2.611-0.5,4.388-2.889c2.444-3.277,5.056-10.609,5.166-13.553c0.056-1.723-0.277-3.666-2.222-3.666
		C225.629,135.423,224.296,135.923,222.686,138.089L222.686,138.089z M232.795,140.755c-0.167,3.056-1.777,8.388-5.888,12.609
		c-3.444,3.555-6.444,3.832-7.944,3.832c-3.555,0-5.887-2.609-5.554-7.387c0.222-3.444,2.277-8.832,6.054-12.443
		c2.89-2.777,5.389-3.609,7.666-3.609C231.073,133.757,233.017,136.701,232.795,140.755L232.795,140.755z"/>
	<path fill="#FFFFFF" d="M242.239,139.034c0.499-1.278,0.611-2.055-0.167-2.055c-1.111,0-3.444,1.888-5.11,3.888
		c-0.5,0-0.889-0.5-0.833-0.943c1.723-2.5,5.332-6.166,8.776-6.166c1.277,0,2.444,1.61,1.666,3.666l-4.388,11.608
		c-0.778,2-1.056,3.166-1.056,3.944c0,0.666,0.277,1.333,1.223,1.333c2.499,0,6.776-5.499,8.721-8.443
		c2.166-3.276,3.332-7.554,3.609-8.887c0.39-1.834,1.611-3,2.611-3c1.333,0,1.666,1.055,1.666,1.555
		c0,1.167-0.611,2.222-1.943,4.999c-2,4.111-3,8.332-3,11.332c0,1.666,0.723,2.444,2.056,2.444c1.666,0,4.61-2.056,6.887-5.333
		c2.167-3.11,3.444-6.498,3.444-9.276c0-1.333-0.111-2.666-0.5-3.944c0.11-1.166,1-1.998,2.055-1.998
		c1.778,0,2.167,2.055,2.167,3.443c0,3.11-1.778,8.055-6.055,13.219c-3.999,4.834-8.388,6.777-10.609,6.777
		c-1.166,0-3.11-1.443-3.11-3.166c0-1.5,0.5-3.277,0.944-4.721c0.277-0.889-0.11-0.834-0.777,0.055
		c-2.611,3.555-7.222,7.832-10.555,7.832c-1.555,0-2.832-1.666-2.832-2.999c0-1.056,0.389-2.5,0.944-4.055L242.239,139.034
		L242.239,139.034z"/>
	<path fill="#FFFFFF" d="M285.011,136.923c0,0.889-0.555,1.5-1,1.722c-0.388,0.11-0.722,0-1.055-0.445
		c-0.943-0.944-1.667-1.776-3.388-1.776c-1.611,0-2.278,1.389-2.278,2.222c0,1.166,0.278,2.333,1.889,5.054
		c1.39,2.334,2.223,3.723,2.11,6.166c-0.055,1.5-0.832,3.555-2.888,5.333c-1.444,1.277-3.499,1.999-5.61,1.999
		c-2.11,0-3.388-1.666-3.388-2.943c0-0.556,0.222-1.166,0.833-1.834c0.444-0.389,1.055-0.389,1.5,0
		c0.722,0.834,2.388,2.223,3.832,2.223c1.334,0,2.667-1.389,2.667-3.166c0-0.944-0.667-2.666-2.057-4.889
		c-1.443-2.332-1.943-4.222-1.943-5.166c0-2.166,0.945-3.776,3.333-5.832c1.61-1.389,3.388-1.832,4.11-1.832
		C283.734,133.757,285.011,135.534,285.011,136.923L285.011,136.923z"/>
</g>
</svg>
