<?xml version="1.0" encoding="utf-8"?>
<!-- Generator: Adobe Illustrator 16.0.1, SVG Export Plug-In . SVG Version: 6.00 Build 0)  -->
<!DOCTYPE svg PUBLIC "-//W3C//DTD SVG 1.1//EN" "http://www.w3.org/Graphics/SVG/1.1/DTD/svg11.dtd">
<svg version="1.1" id="Layer_1" xmlns="http://www.w3.org/2000/svg" xmlns:xlink="http://www.w3.org/1999/xlink" x="0px" y="0px"
	 width="244.91px" height="314.677px" viewBox="-19.642 -249.167 244.91 314.677"
	 enable-background="new -19.642 -249.167 244.91 314.677" xml:space="preserve">
<g>
	<path d="M-18.463-246.831h11v60h18.1v10h-29.1V-246.831z"/>
	<path d="M14.536-230.031c0-5.665,1.433-10.016,4.3-13.05c2.866-3.033,7-4.55,12.4-4.55c5.4,0,9.533,1.517,12.4,4.55
		c2.865,3.034,4.3,7.385,4.3,13.05v36.4c0,5.667-1.435,10.017-4.3,13.05c-2.867,3.034-7,4.55-12.4,4.55
		c-5.4,0-9.534-1.516-12.4-4.55c-2.867-3.033-4.3-7.383-4.3-13.05V-230.031z M25.536-192.93c0,2.534,0.516,4.316,1.55,5.35
		c1.033,1.034,2.416,1.55,4.15,1.55c1.733,0,3.116-0.516,4.15-1.55c1.033-1.033,1.55-2.815,1.55-5.35v-37.801
		c0-2.532-0.517-4.315-1.55-5.35c-1.035-1.033-2.417-1.55-4.15-1.55c-1.734,0-3.117,0.517-4.15,1.55
		c-1.034,1.034-1.55,2.817-1.55,5.35V-192.93z"/>
	<path d="M71.536-215.831h15.4v22.2c0,5.667-1.384,10.017-4.15,13.05c-2.767,3.034-6.85,4.55-12.25,4.55s-9.484-1.516-12.25-4.55
		c-2.767-3.033-4.15-7.383-4.15-13.05v-36.4c0-5.665,1.383-10.016,4.15-13.05c2.766-3.033,6.85-4.55,12.25-4.55
		s9.483,1.517,12.25,4.55c2.766,3.034,4.15,7.385,4.15,13.05v6.8h-10.4v-7.5c0-2.532-0.517-4.315-1.55-5.35
		c-1.035-1.033-2.417-1.55-4.15-1.55c-1.734,0-3.117,0.517-4.15,1.55c-1.034,1.034-1.55,2.817-1.55,5.35v37.801
		c0,2.534,0.516,4.3,1.55,5.3c1.033,1,2.416,1.5,4.15,1.5c1.733,0,3.116-0.5,4.15-1.5c1.033-1,1.55-2.766,1.55-5.3v-12.9h-5
		V-215.831z"/>
	<path d="M93.136-230.031c0-5.665,1.433-10.016,4.3-13.05c2.866-3.033,7-4.55,12.4-4.55c5.4,0,9.533,1.517,12.4,4.55
		c2.865,3.034,4.3,7.385,4.3,13.05v36.4c0,5.667-1.435,10.017-4.3,13.05c-2.867,3.034-7,4.55-12.4,4.55
		c-5.4,0-9.534-1.516-12.4-4.55c-2.867-3.033-4.3-7.383-4.3-13.05V-230.031z M104.136-192.93c0,2.534,0.516,4.316,1.55,5.35
		c1.033,1.034,2.416,1.55,4.15,1.55c1.733,0,3.116-0.516,4.15-1.55c1.033-1.033,1.55-2.815,1.55-5.35v-37.801
		c0-2.532-0.517-4.315-1.55-5.35c-1.035-1.033-2.417-1.55-4.15-1.55c-1.734,0-3.117,0.517-4.15,1.55
		c-1.034,1.034-1.55,2.817-1.55,5.35V-192.93z"/>
	<path d="M5.937-94.13l-4,37.3h-15.1l-7.8-70h10.7l5.9,55.2l5.3-55.2h10.6l5.5,55.6l5.7-55.6h9.6l-7.8,70h-14.6L5.937-94.13z"/>
	<path d="M37.836-126.831h11v70h-11V-126.831z"/>
	<path d="M56.834-126.831h11v60h18.1v10h-29.1V-126.831z"/>
	<path d="M90.733-126.831h11v60h18.1v10h-29.1V-126.831z"/>
	<path d="M-1.863-6.831c5.733,0,9.883,1.334,12.45,4c2.566,2.667,3.85,6.7,3.85,12.1v2.5c0,3.601-0.567,6.567-1.7,8.9
		c-1.135,2.334-2.935,4.067-5.4,5.2c3,1.134,5.116,2.984,6.35,5.55c1.233,2.567,1.85,5.717,1.85,9.45v5.7
		c0,5.399-1.4,9.517-4.2,12.35c-2.8,2.834-6.967,4.25-12.5,4.25h-17.3v-70H-1.863z M-7.463,3.169v18.5h4.3
		c2.066,0,3.683-0.533,4.85-1.6c1.166-1.066,1.75-3,1.75-5.801V10.37c0-2.533-0.45-4.366-1.35-5.5c-0.9-1.133-2.317-1.7-4.25-1.7
		H-7.463z M-7.463,31.669v21.5h6.3c1.866,0,3.283-0.5,4.25-1.5c0.966-1,1.45-2.8,1.45-5.4v-6.1c0-3.266-0.55-5.5-1.65-6.7
		s-2.917-1.8-5.45-1.8H-7.463z"/>
	<path d="M33.136,22.669h15.1v10h-15.1v20.5h19v10h-30v-70h30v10h-19V22.669z"/>
	<path d="M85.436,63.169h-11v-70h11v30h12.5v-30h11.2v70h-11.2v-30h-12.5V63.169z"/>
	<path d="M128.134,22.669h15.1v10h-15.1v20.5h19v10h-30v-70h30v10h-19V22.669z"/>
	<path d="M176.934,63.169c-0.134-0.466-0.267-0.9-0.4-1.3c-0.134-0.4-0.25-0.9-0.35-1.5c-0.1-0.601-0.167-1.366-0.2-2.3
		c-0.034-0.934-0.05-2.101-0.05-3.5v-11c0-3.266-0.567-5.566-1.7-6.9c-1.134-1.333-2.967-2-5.5-2h-3.8v28.5h-11v-70h16.6
		c5.733,0,9.883,1.334,12.45,4c2.566,2.667,3.85,6.7,3.85,12.1v5.5c0,7.2-2.4,11.935-7.2,14.2c2.8,1.135,4.715,2.984,5.75,5.55
		c1.033,2.567,1.55,5.685,1.55,9.351v10.8c0,1.734,0.065,3.25,0.2,4.55c0.133,1.3,0.465,2.617,1,3.95H176.934z M164.934,3.169v21.5
		h4.3c2.066,0,3.683-0.533,4.85-1.6c1.166-1.066,1.75-3,1.75-5.801V10.37c0-2.533-0.45-4.366-1.35-5.5
		c-0.9-1.133-2.317-1.7-4.25-1.7H164.934z"/>
	<path d="M205.133,22.669h15.1v10h-15.1v20.5h19v10h-30v-70h30v10h-19V22.669z"/>
</g>
</svg>
