<?xml version="1.0" encoding="utf-8"?>
<!-- Generator: Adobe Illustrator 16.0.1, SVG Export Plug-In . SVG Version: 6.00 Build 0)  -->
<!DOCTYPE svg PUBLIC "-//W3C//DTD SVG 1.1//EN" "http://www.w3.org/Graphics/SVG/1.1/DTD/svg11.dtd">
<svg version="1.1" id="Layer_1" xmlns="http://www.w3.org/2000/svg" xmlns:xlink="http://www.w3.org/1999/xlink" x="0px" y="0px"
	 width="168.705px" height="172.481px" viewBox="0 0 168.705 172.481" enable-background="new 0 0 168.705 172.481"
	 xml:space="preserve">
<g>
	<path d="M26.305,88.336c0.03-33.98,25.937-60.954,58.346-60.749c31.896,0.207,57.667,27.229,57.783,60.592
		c0.117,34.532-25.826,61.909-58.504,61.731C51.626,149.736,26.278,122.646,26.305,88.336z M117.973,89.458
		c0.378-20.034-13.878-36.064-32.481-36.537C66.052,52.43,50.795,67.712,50.537,87.936c-0.258,19.883,14.184,35.725,32.989,36.189
		C102.293,124.592,117.606,109.181,117.973,89.458z"/>
	<path d="M136.885,16.403c0.105-9.18,7.101-16.428,15.824-16.403c8.622,0.024,15.875,7.478,15.994,16.441
		c0.123,9.146-7.753,17.251-16.479,16.96C143.591,33.112,136.779,25.563,136.885,16.403z"/>
	<path d="M15.598,172.481c-12.478,0-15.669-2.42-15.597-11.829c0.068-9.19,7.069-16.596,15.769-16.686
		c8.679-0.086,15.834,7.23,16.054,16.417C32.057,169.983,28.701,172.485,15.598,172.481z"/>
</g>
</svg>
